<svg xmlns="http://www.w3.org/2000/svg" fill="none" viewBox="0 0 200 200">
  <defs/>
  <path stroke="#000" stroke-linejoin="bevel" stroke-miterlimit="10" stroke-width="6" d="M125 102.113l-5.81 10.851-7.655 8.439L100.468 124l-13.188-1.02-9.683-9.182L74 102.113l4.427-11.13 8.577-10.386L100.468 78l11.897 3.339 8.854 8.717L125 102.113z"/>
  <path stroke="#000" stroke-linejoin="bevel" stroke-miterlimit="10" stroke-width="6" d="M140 102.593l-6.197 13.586-7.121 12.189-11.468 8.747-14.15 2.885-12.116-1.396-10.08-6.793-9.804-6.792L60 115.993l2.22-12.935.185-12.003 6.104-10.701 9.526-7.817 10.728-6.141L101.064 65l14.982 1.117 11.931 9.398 8.324 12.376L140 102.593z"/>
  <path stroke="#000" stroke-linejoin="bevel" stroke-miterlimit="10" stroke-width="6" d="M154 102.092l-3.621 13.189-4.954 12.328-8.956 9.748-10.195 8.123-11.91 5.448L101.31 158l-14.006-4.97-12.196-6.976-12.767-6.021-8.099-11.373-8.48-12.041L45 101.328l7.718-12.52 1.238-14.718L62.15 62.05l13.625-4.874 11.53-7.455L101.31 48l13.911 2.007 14.483 2.676 11.147 9.652 6.479 12.998 1.334 13.953L154 102.092z"/>
  <path stroke="#000" stroke-linejoin="bevel" stroke-miterlimit="10" stroke-width="6" d="M173 103.921l-14.571 25.15-11.025 20.943-11.12 8.797-9.682 9.755L100.048 170l-13.23-.861-11.407-7.172-12.942-3.156-9.586-8.989-9.203-9.467-7.669-10.901-6.231-12.432L27 103.156l9.299-12.623-3.835-15.3 6.231-12.91 22.24-17.405 13.421-3.443L85.382 30l29.334.765 26.938 11.475 10.928 9.468 5.56 13.77 9.587 10.041 1.15 13.675L173 103.921z"/>
  <path stroke="#000" stroke-linejoin="bevel" stroke-miterlimit="10" stroke-width="6" d="M97.462 94.536l-6 3.216L89 104.644S94.077 111 94.615 111c.539 0 9-.766 9.616-.919.538-.153 6.769-9.189 6.769-9.189S107.231 94 106.692 94c-.538 0-9.23.536-9.23.536z"/>
</svg>