<svg width="156" height="156" viewBox="0 0 156 156" fill="none" xmlns="http://www.w3.org/2000/svg">
<path class="stroke-target" d="M105.846 65.3639L96.876 52.9619L79.638 47.0339L62.4 52.9619L53.43 65.3639L51.792 76.3619L53.43 87.3599L62.4 99.7619L79.638 105.69L96.876 99.7619L105.846 87.3599L107.484 76.3619L105.846 65.3639Z" stroke="#DC91C8" stroke-width="6" stroke-miterlimit="10" stroke-linejoin="bevel"/>
<path class="stroke-target" d="M79.638 34.632L79.56 15.6" stroke="#DC91C8" stroke-width="6" stroke-miterlimit="10" stroke-linejoin="bevel"/>
<path class="stroke-target" d="M79.638 140.4V117.39" stroke="#DC91C8" stroke-width="6" stroke-miterlimit="10" stroke-linejoin="bevel"/>
<path class="stroke-target" d="M100.854 40.014L117.702 17.94" stroke="#DC91C8" stroke-width="6" stroke-miterlimit="10" stroke-linejoin="bevel"/>
<path class="stroke-target" d="M113.1 59.436L133.77 50.856" stroke="#DC91C8" stroke-width="6" stroke-miterlimit="10" stroke-linejoin="bevel"/>
<path class="stroke-target" d="M118.872 76.206H135.798" stroke="#DC91C8" stroke-width="6" stroke-miterlimit="10" stroke-linejoin="bevel"/>
<path class="stroke-target" d="M114.426 95.862L137.28 108.03" stroke="#DC91C8" stroke-width="6" stroke-miterlimit="10" stroke-linejoin="bevel"/>
<path class="stroke-target" d="M100.854 113.568L109.356 127.218" stroke="#DC91C8" stroke-width="6" stroke-miterlimit="10" stroke-linejoin="bevel"/>
<path class="stroke-target" d="M57.72 113.568L43.992 131.43" stroke="#DC91C8" stroke-width="6" stroke-miterlimit="10" stroke-linejoin="bevel"/>
<path class="stroke-target" d="M43.68 94.77L27.144 102.96" stroke="#DC91C8" stroke-width="6" stroke-miterlimit="10" stroke-linejoin="bevel"/>
<path class="stroke-target" d="M42.978 77.142L17.16 77.064" stroke="#DC91C8" stroke-width="6" stroke-miterlimit="10" stroke-linejoin="bevel"/>
<path class="stroke-target" d="M42.432 56.316L25.662 47.346" stroke="#DC91C8" stroke-width="6" stroke-miterlimit="10" stroke-linejoin="bevel"/>
<path class="stroke-target" d="M58.11 39.78L45.162 15.912" stroke="#DC91C8" stroke-width="6" stroke-miterlimit="10" stroke-linejoin="bevel"/>
</svg>
