<svg width="156" height="156" viewBox="0 0 156 156" fill="none" xmlns="http://www.w3.org/2000/svg">
<path d="M76.5153 46.3823L70.3964 58.8362L60.534 72.2979L57.0786 84.3199L60.0301 96.0539L70.7563 103.973L84.0741 104.98L94.6563 96.2699L98.6156 85.1838L93.4325 71.0742L82.5623 57.0365L76.5153 46.3823Z" stroke="#A3C1FF" stroke-width="6" stroke-miterlimit="10" stroke-linejoin="bevel"/>
<path d="M121.148 50.1977L109.63 35.3682L78.387 24.57L47.1443 35.3682L30.875 57.9004L28.2834 74.2416" stroke="#A3C1FF" stroke-width="6" stroke-miterlimit="10" stroke-linejoin="bevel"/>
<path d="M35.4822 104.189L47.1443 120.242L78.387 131.04L109.63 120.242L125.971 97.7816L128.347 83.0241" stroke="#A3C1FF" stroke-width="6" stroke-miterlimit="10" stroke-linejoin="bevel"/>
<path d="M15.1884 66.8611L29.2022 92.0958L40.8734 66.9271" stroke="#A3C1FF" stroke-width="6" stroke-miterlimit="10" stroke-linejoin="bevel"/>
<path d="M141.18 87.126L128.201 63.96L115.44 87.36" stroke="#A3C1FF" stroke-width="6" stroke-miterlimit="10" stroke-linejoin="bevel"/>
</svg>
