<svg width="175" height="24" viewBox="0 0 175 24" fill="none" xmlns="http://www.w3.org/2000/svg">
<path d="M11.32 14.54V10.412H4.888V4.684H11.8V0.556H0.504V23.5H4.888V14.54H11.32ZM20.849 23.884C23.025 23.884 24.6997 23.276 25.873 22.06C27.0677 20.844 27.665 18.924 27.665 16.3V0.556H23.121V16.044C23.121 17.324 22.9503 18.2307 22.609 18.764C22.2677 19.276 21.681 19.532 20.849 19.532C20.0383 19.532 19.4517 19.2653 19.089 18.732C18.7477 18.1773 18.577 17.2813 18.577 16.044V0.556H14.001V16.3C14.001 18.924 14.577 20.844 15.729 22.06C16.881 23.276 18.5877 23.884 20.849 23.884ZM42.5673 4.652V0.556H29.7033V4.652H33.8633V23.5H38.3433V4.652H42.5673ZM51.4427 23.884C53.6188 23.884 55.2934 23.276 56.4668 22.06C57.6614 20.844 58.2588 18.924 58.2588 16.3V0.556H53.7148V16.044C53.7148 17.324 53.5441 18.2307 53.2028 18.764C52.8614 19.276 52.2748 19.532 51.4427 19.532C50.6321 19.532 50.0454 19.2653 49.6828 18.732C49.3414 18.1773 49.1708 17.2813 49.1708 16.044V0.556H44.5948V16.3C44.5948 18.924 45.1708 20.844 46.3228 22.06C47.4748 23.276 49.1814 23.884 51.4427 23.884ZM67.721 4.364C68.5957 4.364 69.225 4.556 69.609 4.94C69.993 5.30267 70.185 5.85733 70.185 6.604V8.652C70.185 9.44133 69.993 10.0387 69.609 10.444C69.225 10.828 68.5957 11.02 67.721 11.02H65.481V4.364H67.721ZM67.433 14.956C68.3503 14.956 68.9797 15.1373 69.321 15.5C69.6623 15.8627 69.833 16.4813 69.833 17.356V21.996C69.833 22.3373 69.865 22.6467 69.929 22.924C69.993 23.2013 70.0997 23.3933 70.249 23.5H74.953C74.761 23.3293 74.6117 23.1267 74.505 22.892C74.3983 22.636 74.345 22.348 74.345 22.028V17.164C74.345 15.9693 74.1637 15.0413 73.801 14.38C73.4597 13.6973 72.873 13.2067 72.041 12.908C72.873 12.5667 73.513 12.0547 73.961 11.372C74.409 10.668 74.633 9.72933 74.633 8.556V6.348C74.633 4.40667 74.0997 2.956 73.033 1.996C71.9877 1.036 70.2917 0.556 67.945 0.556H61.129V23.5H65.481V14.956H67.433ZM89.2235 19.372H81.6395V13.9H88.1675V9.868H81.6395V4.556H88.9995V0.556H77.1915V23.5H89.2235V19.372ZM104.805 23.884C107.045 23.884 108.73 23.3293 109.861 22.22C111.013 21.1107 111.589 19.6067 111.589 17.708V16.3C111.589 14.9987 111.322 13.9533 110.789 13.164C110.277 12.3747 109.616 11.7453 108.805 11.276C108.4 11.02 107.994 10.7853 107.589 10.572C107.184 10.3587 106.778 10.1667 106.373 9.996C105.712 9.69733 105.093 9.40933 104.517 9.132C103.941 8.83333 103.472 8.492 103.109 8.108C102.917 7.916 102.778 7.70267 102.693 7.468C102.608 7.212 102.565 6.94533 102.565 6.668V6.156C102.565 5.47333 102.725 4.92933 103.045 4.524C103.365 4.11867 103.898 3.916 104.645 3.916C105.434 3.916 105.989 4.108 106.309 4.492C106.65 4.85467 106.832 5.43067 106.853 6.22V8.012H111.269V5.996C111.269 4.18267 110.725 2.764 109.637 1.74C108.57 0.715999 106.928 0.203999 104.709 0.203999C102.49 0.203999 100.826 0.747999 99.717 1.836C98.629 2.90267 98.085 4.34267 98.085 6.156V6.924C98.085 8.204 98.341 9.23867 98.853 10.028C99.365 10.796 100.016 11.4253 100.805 11.916C101.189 12.1507 101.584 12.3747 101.989 12.588C102.394 12.78 102.8 12.972 103.205 13.164C103.888 13.4627 104.517 13.772 105.093 14.092C105.69 14.3907 106.181 14.7427 106.565 15.148C106.736 15.3613 106.864 15.6067 106.949 15.884C107.056 16.14 107.109 16.428 107.109 16.748V17.676C107.109 18.316 106.938 18.8493 106.597 19.276C106.256 19.7027 105.68 19.916 104.869 19.916C103.952 19.916 103.312 19.692 102.949 19.244C102.608 18.796 102.426 18.1773 102.405 17.388V14.956H97.765V17.42C97.765 19.5107 98.2877 21.1107 99.333 22.22C100.378 23.3293 102.202 23.884 104.805 23.884ZM120.536 23.884C122.713 23.884 124.387 23.276 125.561 22.06C126.755 20.844 127.353 18.924 127.353 16.3V0.556H122.809V16.044C122.809 17.324 122.638 18.2307 122.297 18.764C121.955 19.276 121.369 19.532 120.536 19.532C119.726 19.532 119.139 19.2653 118.777 18.732C118.435 18.1773 118.265 17.2813 118.265 16.044V0.556H113.689V16.3C113.689 18.924 114.265 20.844 115.417 22.06C116.569 23.276 118.275 23.884 120.536 23.884ZM136.751 4.364C137.647 4.364 138.308 4.56667 138.735 4.972C139.161 5.37733 139.375 6.01733 139.375 6.892V9.836C139.375 10.7107 139.151 11.372 138.703 11.82C138.276 12.268 137.625 12.492 136.751 12.492H134.639V4.364H136.751ZM136.975 16.396C139.385 16.396 141.135 15.82 142.223 14.668C143.311 13.516 143.855 11.9373 143.855 9.932V6.796C143.855 4.70533 143.289 3.148 142.159 2.124C141.049 1.07867 139.289 0.556 136.879 0.556H130.223V23.5H134.639V16.396H136.975ZM158.161 19.372H150.577V13.9H157.105V9.868H150.577V4.556H157.937V0.556H146.129V23.5H158.161V19.372ZM167.065 4.364C167.939 4.364 168.569 4.556 168.953 4.94C169.337 5.30267 169.529 5.85733 169.529 6.604V8.652C169.529 9.44133 169.337 10.0387 168.953 10.444C168.569 10.828 167.939 11.02 167.065 11.02H164.825V4.364H167.065ZM166.777 14.956C167.694 14.956 168.323 15.1373 168.665 15.5C169.006 15.8627 169.177 16.4813 169.177 17.356V21.996C169.177 22.3373 169.209 22.6467 169.273 22.924C169.337 23.2013 169.443 23.3933 169.593 23.5H174.297C174.105 23.3293 173.955 23.1267 173.849 22.892C173.742 22.636 173.689 22.348 173.689 22.028V17.164C173.689 15.9693 173.507 15.0413 173.145 14.38C172.803 13.6973 172.217 13.2067 171.385 12.908C172.217 12.5667 172.857 12.0547 173.305 11.372C173.753 10.668 173.977 9.72933 173.977 8.556V6.348C173.977 4.40667 173.443 2.956 172.377 1.996C171.331 1.036 169.635 0.556 167.289 0.556H160.473V23.5H164.825V14.956H166.777Z" fill="#140F14"/>
</svg>
