<svg xmlns="http://www.w3.org/2000/svg" width="182" height="17" fill="none" viewBox="0 0 976 89">
  <defs/>
  <path fill="#000" d="M31.352 65.023v20.824H0V2.534h69.648v27.874H31.352v8.097h37.833v26.5l-37.833.018zM77.288 45.93V2.533h33.892v43.078c0 9.028 2.535 12.151 7.869 12.151s7.652-2.927 7.652-12.15V2.533H160.6v43.395c0 29.389-15.039 41.881-41.653 41.881-30.098 0-41.66-12.84-41.66-41.88zM222.589 31.929v53.918h-32.942V31.929h-22.129V2.534h77.288v29.395h-22.217zM251.281 45.93V2.533h33.899v43.078c0 9.028 2.534 12.151 7.868 12.151 5.334 0 7.602-2.895 7.602-12.15V2.533h33.899v43.395c0 29.389-15.04 41.881-41.647 41.881-30.054 0-41.621-12.84-41.621-41.88zM374.84 63.287v22.56h-31.676V2.534h43.041c29.965 0 39.911 9.832 39.911 27.653 0 10.18-4.283 16.889-12.613 20.823 8.096 2.889 10.991 8.907 10.991 20.272v8.673c0 2.781 1.159 4.859 3.123 5.904h-33.918c-1.85-1.045-2.66-3.243-2.66-5.442V71.15c0-6.126-2.085-7.862-8.236-7.862h-7.963zm0-35.286v11.105h11.688c4.511 0 6.969-2.318 6.969-5.67 0-3.35-2.085-5.435-6.969-5.435H374.84zM506.267 85.847h-73.582V2.534h72.771v25.22h-41.418v6.132h39.803v19.202h-39.803v6.367h42.229v26.392zM538.082 57.966v-.12h35.635v.348c.697 4.048 5.435 5.898 11.219 5.898 5.208 0 7.178-1.267 7.178-3.465 0-3.244-4.859-4.169-20.133-5.79-19.436-2.199-32.309-8.325-32.309-25.449C539.672 11.22 554.826 0 580.977 0c25.105 0 39.334 8.445 43.034 29.04v.101h-33.665c-.697-3.934-4.282-5.784-10.415-5.784-5.549 0-7.285 1.85-7.285 3.801 0 2.775 4.276 3.586 19.202 5.208 19.322 2.192 33.088 7.982 33.088 26.145 0 17.814-12.956 29.502-42.445 29.502-32.03.044-42.673-10.846-44.409-30.047zM629.941 45.93V2.533h33.899v43.078c0 9.028 2.534 12.151 7.868 12.151 5.334 0 7.602-2.895 7.602-12.15V2.533h33.899v43.395c0 29.389-15.04 41.881-41.647 41.881-30.047 0-41.621-12.84-41.621-41.88zM753.157 68.146v17.7h-31.352V2.535h41.761c28.229 0 40.728 12.037 40.728 33.316 0 21.172-12.727 32.309-40.494 32.309l-10.643-.013zm0-38.992v13.652h9.947c6.132 0 8.907-1.964 8.907-6.823 0-4.745-2.661-6.829-9.021-6.829h-9.833zM884.122 85.847h-73.581V2.534h72.771v25.22h-41.419v6.132h39.797v19.202h-39.797v6.367h42.229v26.392zM923.222 63.287v22.56h-31.675V2.534h43.041c29.965 0 39.911 9.832 39.911 27.653 0 10.18-4.283 16.889-12.614 20.823 8.097 2.889 10.992 8.907 10.992 20.272v8.673c0 2.781 1.159 4.859 3.123 5.904h-33.899c-1.85-1.045-2.661-3.243-2.661-5.442V71.15c0-6.126-2.084-7.862-8.235-7.862h-7.983zm0-35.286v11.105h11.689c4.51 0 6.968-2.318 6.968-5.67 0-3.35-2.084-5.435-6.968-5.435h-11.689z"/>
</svg>