<svg width="86" height="58" viewBox="0 0 86 58" fill="none" xmlns="http://www.w3.org/2000/svg">
<path d="M10.78 17.16V13.548H5.152V8.536H11.2V4.924H1.316V25H5.152V17.16H10.78ZM19.1179 25.336C22.9259 25.336 25.0819 23.292 25.0819 18.7V4.924H21.1059V18.476C21.1059 20.716 20.5739 21.528 19.1179 21.528C17.6899 21.528 17.1299 20.66 17.1299 18.476V4.924H13.1259V18.7C13.1259 23.292 15.1419 25.336 19.1179 25.336ZM38.1213 8.508V4.924H26.8653V8.508H30.5053V25H34.4253V8.508H38.1213ZM45.8874 25.336C49.6954 25.336 51.8514 23.292 51.8514 18.7V4.924H47.8754V18.476C47.8754 20.716 47.3434 21.528 45.8874 21.528C44.4594 21.528 43.8994 20.66 43.8994 18.476V4.924H39.8954V18.7C39.8954 23.292 41.9114 25.336 45.8874 25.336ZM60.1309 8.256C61.6709 8.256 62.2869 8.9 62.2869 10.216V12.008C62.2869 13.38 61.6429 14.08 60.1309 14.08H58.1709V8.256H60.1309ZM59.8789 17.524C61.4749 17.524 61.9789 18.112 61.9789 19.624V23.684C61.9789 24.3 62.0909 24.804 62.3429 25H66.4589C66.1229 24.72 65.9269 24.328 65.9269 23.712V19.456C65.9269 17.384 65.3669 16.264 63.9109 15.732C65.3669 15.144 66.1789 13.968 66.1789 11.924V9.992C66.1789 6.604 64.4429 4.924 60.3269 4.924H54.3629V25H58.1709V17.524H59.8789ZM78.9456 21.388H72.3096V16.6H78.0216V13.072H72.3096V8.424H78.7496V4.924H68.4176V25H78.9456V21.388ZM6.72 54.336C10.64 54.336 12.656 52.264 12.656 48.932V47.7C12.656 44.312 10.248 43.136 8.092 42.184C6.356 41.4 4.76 40.784 4.76 39.272V38.824C4.76 37.648 5.264 36.864 6.58 36.864C7.952 36.864 8.484 37.508 8.512 38.88V40.448H12.376V38.684C12.376 35.52 10.528 33.616 6.636 33.616C2.744 33.616 0.84 35.66 0.84 38.824V39.496C0.84 42.856 3.164 44.004 5.32 44.956C7.084 45.74 8.736 46.412 8.736 48.092V48.904C8.736 50.024 8.204 50.864 6.776 50.864C5.18 50.864 4.648 50.024 4.62 48.652V46.524H0.56V48.68C0.56 52.348 2.156 54.336 6.72 54.336ZM20.4851 54.336C24.2931 54.336 26.4491 52.292 26.4491 47.7V33.924H22.4731V47.476C22.4731 49.716 21.9411 50.528 20.4851 50.528C19.0571 50.528 18.4971 49.66 18.4971 47.476V33.924H14.4931V47.7C14.4931 52.292 16.5091 54.336 20.4851 54.336ZM34.6725 37.256C36.2405 37.256 36.9685 37.928 36.9685 39.468V42.044C36.9685 43.612 36.1845 44.368 34.6725 44.368H32.8245V37.256H34.6725ZM34.8685 47.784C39.0685 47.784 40.8885 45.628 40.8885 42.128V39.384C40.8885 35.716 39.0125 33.924 34.7845 33.924H28.9605V54H32.8245V47.784H34.8685ZM53.4065 50.388H46.7705V45.6H52.4825V42.072H46.7705V37.424H53.2105V33.924H42.8785V54H53.4065V50.388ZM61.1973 37.256C62.7373 37.256 63.3533 37.9 63.3533 39.216V41.008C63.3533 42.38 62.7093 43.08 61.1973 43.08H59.2373V37.256H61.1973ZM60.9453 46.524C62.5413 46.524 63.0453 47.112 63.0453 48.624V52.684C63.0453 53.3 63.1573 53.804 63.4093 54H67.5253C67.1893 53.72 66.9933 53.328 66.9933 52.712V48.456C66.9933 46.384 66.4333 45.264 64.9773 44.732C66.4333 44.144 67.2453 42.968 67.2453 40.924V38.992C67.2453 35.604 65.5093 33.924 61.3933 33.924H55.4293V54H59.2373V46.524H60.9453Z" fill="#140F14"/>
</svg>
