<svg xmlns="http://www.w3.org/2000/svg" fill="none" viewBox="0 0 24 24">
  <defs/>
  <path class="fill-target" fill="#000" d="M12.189 4C7.359 4 4 7.244 4 12.005 4 16.967 7.446 20 12.344 20c1.045 0 2.032-.125 2.787-.355v-1.536c-.551.202-1.607.336-2.642.336-3.988 0-6.708-2.351-6.708-6.392 0-3.859 2.613-6.527 6.34-6.527 3.668 0 6.098 2.256 6.098 5.75 0 2.044-.658 3.244-1.607 3.244-.61 0-.92-.423-.92-1.085V8.3h-1.964v1.152h-.136c-.377-.845-1.248-1.363-2.294-1.363-1.936 0-3.262 1.593-3.262 3.925 0 2.438 1.346 4.06 3.359 4.06 1.123 0 1.936-.518 2.333-1.478h.135c.213.931 1.133 1.507 2.333 1.507 2.362 0 3.804-1.948 3.804-4.972C20 6.861 16.777 4 12.189 4zm-.32 5.836c1.036 0 1.684.854 1.684 2.236 0 1.382-.648 2.236-1.693 2.236-1.017 0-1.627-.844-1.627-2.236 0-1.401.61-2.236 1.636-2.236z"/>
</svg>