<svg width="48" height="74" fill="none" xmlns="http://www.w3.org/2000/svg">
  <g clip-path="url(#clip0)" fill="#140F14">
    <path d="M6.334 2.515a1.838 1.838 0 00-.408-.457 1.916 1.916 0 00-1.2-.417c-.411 0-.76.08-1.048.237a1.98 1.98 0 00-.699.637 2.775 2.775 0 00-.39.908 4.49 4.49 0 00-.122 1.053c0 .347.04.684.122 1.012.082.328.212.623.39.885.179.262.412.472.699.63.287.158.637.237 1.048.237.56 0 .996-.17 1.31-.508.315-.34.507-.787.577-1.342h1.77a4.174 4.174 0 01-.36 1.4c-.195.416-.451.77-.77 1.064a3.275 3.275 0 01-1.118.67 4.125 4.125 0 01-1.409.232c-.636 0-1.21-.11-1.718-.33a3.672 3.672 0 01-1.286-.908 4.008 4.008 0 01-.804-1.36 4.954 4.954 0 01-.28-1.682c0-.617.094-1.19.28-1.718a4.11 4.11 0 01.804-1.382A3.66 3.66 0 013.008.45C3.517.226 4.09.114 4.726.114c.458 0 .891.066 1.299.197.407.131.772.322 1.094.573.323.25.589.56.798.931.21.37.342.794.396 1.273h-1.77a1.45 1.45 0 00-.21-.573zM12.86 3.99c-.197-.216-.498-.324-.902-.324a1.45 1.45 0 00-.658.133 1.205 1.205 0 00-.64.747 1.839 1.839 0 00-.076.392h2.69c-.077-.416-.215-.732-.413-.948zm-1.868 3.147c.248.238.605.358 1.071.358.334 0 .62-.083.862-.249.24-.165.388-.34.442-.526h1.456c-.233.717-.59 1.23-1.072 1.539-.481.308-1.063.462-1.746.462-.474 0-.9-.075-1.281-.225a2.666 2.666 0 01-.967-.642 2.882 2.882 0 01-.611-.995 3.618 3.618 0 01-.216-1.273c0-.447.074-.864.221-1.25.148-.385.358-.718.63-1 .271-.281.595-.503.972-.665a3.13 3.13 0 011.252-.243c.512 0 .958.099 1.339.295.38.197.693.46.937.793.245.331.422.71.53 1.134.109.423.148.867.117 1.33h-4.344c.023.532.16.918.408 1.157zm6.253-4.547V3.7h.023a2.065 2.065 0 01.769-.92c.17-.11.353-.198.548-.26.194-.061.395-.092.605-.092.109 0 .229.02.361.058v1.527a3.193 3.193 0 00-.594-.058c-.302 0-.559.05-.768.15-.21.1-.38.237-.507.411a1.64 1.64 0 00-.274.608 3.298 3.298 0 00-.081.751v2.696h-1.654V2.59h1.572zm6.732 0v1.1h-1.212v2.96c0 .279.047.463.14.556.094.093.28.14.559.14a2.913 2.913 0 00.513-.047V8.57c-.14.023-.296.039-.467.046-.17.008-.337.012-.5.012-.256 0-.5-.017-.728-.052a1.72 1.72 0 01-.606-.202 1.078 1.078 0 01-.413-.429c-.101-.185-.151-.428-.151-.728V3.689H20.11V2.59h1.002V.797h1.653V2.59h1.212zm.838 5.981h1.653v-5.98h-1.653v5.98zm0-6.906h1.653V.312h-1.653v1.353zm2.329 2.025v-1.1h.99v-.462c0-.532.166-.968.5-1.307.334-.34.84-.51 1.514-.51.148 0 .296.006.444.018.146.011.29.021.43.029v1.226a5.067 5.067 0 00-.606-.035c-.225 0-.386.052-.483.157-.097.103-.145.28-.145.526v.359h1.14v1.098h-1.14v4.882h-1.654V3.69h-.99zm4.786 4.881h1.654v-5.98H31.93v5.98zm0-6.906h1.654V.312H31.93v1.353zm6.131 2.325c-.197-.216-.499-.324-.902-.324a1.45 1.45 0 00-.658.133 1.216 1.216 0 00-.64.747 1.875 1.875 0 00-.076.392h2.69c-.077-.416-.215-.732-.414-.948zm-1.869 3.147c.249.238.606.358 1.072.358.334 0 .62-.083.861-.249.241-.165.39-.34.443-.526h1.456c-.233.717-.59 1.23-1.071 1.539-.483.308-1.064.462-1.748.462-.473 0-.9-.075-1.28-.225a2.663 2.663 0 01-.967-.642 2.874 2.874 0 01-.611-.995 3.627 3.627 0 01-.216-1.273c0-.447.074-.864.221-1.25.148-.385.357-.718.63-1 .271-.281.595-.503.972-.665a3.132 3.132 0 011.252-.243c.512 0 .959.099 1.339.295.38.197.693.46.938.793.244.331.42.71.529 1.134.109.423.147.867.117 1.33h-4.344c.023.532.159.918.407 1.157zm8.886-2.285a1.732 1.732 0 00-.239-.601 1.337 1.337 0 00-.437-.423c-.178-.108-.403-.162-.675-.162-.271 0-.5.054-.687.162a1.295 1.295 0 00-.448.428c-.113.178-.194.38-.244.608a3.238 3.238 0 00.005 1.405c.054.232.142.438.262.62.12.18.272.327.454.439.183.112.402.167.658.167.272 0 .499-.053.682-.162.182-.107.328-.252.436-.434.108-.18.187-.387.233-.618a3.594 3.594 0 000-1.43zm.07 2.956a1.71 1.71 0 01-.763.7c-.314.142-.67.214-1.066.214a2.59 2.59 0 01-1.187-.26 2.375 2.375 0 01-.845-.706 3.171 3.171 0 01-.5-1.024 4.273 4.273 0 01-.169-1.203c0-.401.056-.789.168-1.163a3.05 3.05 0 01.501-.99c.222-.284.5-.514.833-.687.334-.174.722-.26 1.165-.26.357 0 .696.075 1.018.225.323.15.577.372.763.665h.023V.312h1.654v8.26h-1.572v-.764h-.023zM17.32 45.444h8.86c3.052 0 4.987-1.849 4.987-4.733 0-3.437-2.79-4.398-5.77-4.398H17.32v9.131zm0-12.09h7.074c4.02 0 5.657-1.441 5.657-4.214 0-3.661-2.604-4.177-5.657-4.177H17.32v8.391zm-3.534-11.35h9.64c2.345 0 5.434 0 7.034.962 1.749 1.035 3.125 2.92 3.125 5.51 0 2.808-1.487 4.916-3.944 5.914v.074c3.277.665 5.062 3.106 5.062 6.36 0 3.88-2.792 7.578-8.076 7.578H13.786V22.005z"/>
    <path d="M23.529 12.075C10.67 12.075.246 22.43.246 35.203S10.67 58.331 23.529 58.331c12.86 0 23.284-10.355 23.284-23.128S36.389 12.075 23.529 12.075zm20.213 23.14c0 11.09-9.048 20.079-20.213 20.079-11.164 0-20.213-8.99-20.213-20.08 0-11.087 9.05-20.077 20.213-20.077 11.165 0 20.213 8.99 20.213 20.078zM4.544 63.327c-.084-.581-.644-1.023-1.287-1.023-1.162 0-1.6.983-1.6 2.007 0 .973.438 1.956 1.6 1.956.79 0 1.238-.54 1.335-1.31h1.255c-.133 1.458-1.146 2.39-2.59 2.39-1.821 0-2.893-1.35-2.893-3.036 0-1.737 1.072-3.088 2.893-3.088 1.295 0 2.382.753 2.54 2.104H4.543zm4.005 3.12c.8 0 1.038-.68 1.038-1.351 0-.68-.239-1.36-1.038-1.36-.791 0-1.032.68-1.032 1.36 0 .67.24 1.35 1.032 1.35zm0-3.586c1.344 0 2.21.883 2.21 2.235 0 1.343-.866 2.227-2.21 2.227-1.336 0-2.2-.884-2.2-2.227 0-1.352.864-2.235 2.2-2.235zm2.885.114h1.112v.786h.016c.214-.532.792-.9 1.361-.9.083 0 .18.016.256.04v1.081a2.198 2.198 0 00-.42-.04c-.859 0-1.156.614-1.156 1.359v1.908h-1.17v-4.234zm6.535 2.13c0-.673-.272-1.368-1.022-1.368-.767 0-1.013.68-1.013 1.368 0 .687.263 1.342 1.022 1.342.767 0 1.013-.655 1.013-1.342zm-3.165-2.13h1.114v.54h.016c.28-.45.74-.654 1.268-.654 1.337 0 1.937 1.072 1.937 2.275 0 1.13-.625 2.187-1.871 2.187-.51 0-.996-.221-1.277-.639h-.017V68.7h-1.17v-5.724zm7.104 3.472c.8 0 1.04-.68 1.04-1.351 0-.68-.24-1.36-1.04-1.36-.79 0-1.03.68-1.03 1.36 0 .67.24 1.35 1.03 1.35zm0-3.586c1.344 0 2.211.883 2.211 2.235 0 1.343-.867 2.227-2.211 2.227-1.335 0-2.2-.884-2.2-2.227 0-1.352.865-2.235 2.2-2.235zm2.969.114h1.113v.786h.018c.213-.532.79-.9 1.359-.9a.89.89 0 01.255.04v1.081a2.178 2.178 0 00-.42-.04c-.857 0-1.155.614-1.155 1.359v1.908h-1.17v-4.234zm5.861 2.161c-.2.174-.61.18-.974.246-.362.073-.692.197-.692.623 0 .434.338.54.718.54.913 0 .948-.72.948-.974v-.435zm-2.705-.858c.067-1.09 1.047-1.417 2.003-1.417.849 0 1.872.188 1.872 1.202v2.204c0 .385.04.77.15.942h-1.19a1.844 1.844 0 01-.083-.41c-.37.385-.913.524-1.433.524-.808 0-1.45-.4-1.45-1.27 0-.957.726-1.186 1.45-1.284.718-.107 1.386-.082 1.386-.558 0-.498-.348-.572-.759-.572-.445 0-.733.18-.775.639h-1.171zm6.264-1.302h.858v.777h-.858v2.095c0 .395.1.493.494.493.125 0 .24-.009.364-.032v.908a4.538 4.538 0 01-.686.041c-.715 0-1.341-.165-1.341-1.007v-2.498h-.71v-.777h.71v-1.27h1.17v1.27zm1.451 4.233h1.17v-4.234h-1.17v4.234zm0-4.89h1.17v-.958h-1.17v.959zm3.996 4.128c.801 0 1.04-.68 1.04-1.351 0-.68-.239-1.36-1.04-1.36-.79 0-1.03.68-1.03 1.36 0 .67.24 1.35 1.03 1.35zm0-3.586c1.345 0 2.212.883 2.212 2.235 0 1.343-.867 2.227-2.212 2.227-1.334 0-2.199-.884-2.199-2.227 0-1.352.865-2.235 2.2-2.235zm2.968.114h1.113v.59h.024a1.521 1.521 0 011.304-.704c1.244 0 1.556.696 1.556 1.744v2.604h-1.17v-2.392c0-.695-.206-1.04-.75-1.04-.635 0-.907.353-.907 1.213v2.219h-1.17v-4.234zM.333 73.76h46.415v-2.95H.333v2.95z"/>
  </g>
  <defs>
    <clipPath id="clip0">
      <path fill="#fff" d="M0 0h48v73.8H0z"/>
    </clipPath>
  </defs>
</svg>
