<svg width="48" height="74" xmlns="http://www.w3.org/2000/svg" viewBox="0 0 96.69 163.03">
  <path d="M28.23 47h20c4.86 0 11.27 0 14.58 2a13.07 13.07 0 016.48 11.5 12.72 12.72 0 01-8.19 12.35V73c6.79 1.38 10.49 6.48 10.49 13.27 0 8.1-5.79 15.81-16.74 15.81H28.23zm7.32 23.68h14.67c8.33 0 11.73-3 11.73-8.79 0-7.64-5.4-8.72-11.73-8.72H35.55zm0 25.23h18.37c6.33 0 10.34-3.86 10.34-9.87 0-7.18-5.79-9.19-12-9.19H35.55z" class="cls-1"/>
  <path d="M90.33 74.57a41.91 41.91 0 11-41.91-41.89 41.91 41.91 0 0141.91 41.89zM48.42 26.28a48.27 48.27 0 1048.27 48.27 48.27 48.27 0 00-48.27-48.27zM.26 132.99h96.33v6.33H.26zM11.93 5.06a3.86 3.86 0 00-.85-1 4 4 0 00-1.16-.65 4.07 4.07 0 00-1.35-.23 4.53 4.53 0 00-2.2.5 4.09 4.09 0 00-1.46 1.38A5.72 5.72 0 004.09 7a9.5 9.5 0 00-.26 2.2 8.87 8.87 0 00.26 2.13 5.64 5.64 0 00.82 1.87 4.15 4.15 0 001.46 1.33 4.53 4.53 0 002.2.5A3.55 3.55 0 0011.31 14a5 5 0 001.21-2.83h3.71a8.83 8.83 0 01-.76 2.95 6.88 6.88 0 01-4 3.66 8.73 8.73 0 01-2.95.49 9 9 0 01-3.6-.7 7.55 7.55 0 01-2.7-1.92 8.41 8.41 0 01-1.63-2.9A10.54 10.54 0 010 9.2a11 11 0 01.59-3.63 8.74 8.74 0 011.68-2.91A7.62 7.62 0 015 .71 8.79 8.79 0 018.57 0a9 9 0 012.72.41 7.38 7.38 0 012.29 1.21 6.51 6.51 0 011.67 2 6.91 6.91 0 01.83 2.68h-3.71a3 3 0 00-.44-1.24zM21.22 14.81a3.12 3.12 0 002.25.76 3.06 3.06 0 001.8-.53 2.14 2.14 0 00.93-1.11h3.05A5.82 5.82 0 0127 17.18a6.56 6.56 0 01-3.65 1 7.37 7.37 0 01-2.69-.47 5.5 5.5 0 01-2-1.36 5.87 5.87 0 01-1.28-2.1 7.43 7.43 0 01-.46-2.68 7.31 7.31 0 01.47-2.63 6.37 6.37 0 011.31-2.12 6.23 6.23 0 012-1.4 6.6 6.6 0 012.63-.51 6.05 6.05 0 012.8.62 5.58 5.58 0 012 1.67 6.83 6.83 0 011.12 2.39 9.33 9.33 0 01.24 2.81h-9.1a3.51 3.51 0 00.83 2.41zm3.92-6.64a2.47 2.47 0 00-1.89-.68 3 3 0 00-1.38.28 2.6 2.6 0 00-.88.7 2.48 2.48 0 00-.46.88 3.47 3.47 0 00-.16.82H26a4 4 0 00-.86-2zM34.32 5.22v2.34A4.29 4.29 0 0135 6.48a4.54 4.54 0 011-.86 4.87 4.87 0 011.15-.55 4.16 4.16 0 011.27-.19 2.77 2.77 0 01.76.12v3.22c-.17 0-.36-.06-.59-.08a5.07 5.07 0 00-.66 0 3.73 3.73 0 00-1.61.32 2.82 2.82 0 00-1.06.86 3.46 3.46 0 00-.57 1.28 6.69 6.69 0 00-.17 1.59v5.68H31V5.22zM48.43 5.22v2.32h-2.54v6.24a1.75 1.75 0 00.29 1.22 1.74 1.74 0 001.17.29 5 5 0 00.56 0 4.34 4.34 0 00.52-.07v2.68a7 7 0 01-1 .1H46.4a10.45 10.45 0 01-1.52-.11 3.73 3.73 0 01-1.27-.43 2.22 2.22 0 01-.87-.9 3.26 3.26 0 01-.32-1.56V7.54h-2.09V5.22h2.09V1.44h3.47v3.78zM50.44 3.27V.41h3.47v2.86zm3.47 1.95v12.61h-3.47V5.22zM55.28 7.54V5.22h2.08v-1a3.76 3.76 0 011-2.75A4.21 4.21 0 0161.58.41h.92l.91.06V3.1a10.46 10.46 0 00-1.27-.1 1.36 1.36 0 00-1 .32 1.6 1.6 0 00-.31 1.12v.75h2.39v2.35h-2.4v10.29h-3.46V7.54zM65.56 3.27V.41H69v2.86zM69 5.22v12.61h-3.44V5.22zM74.49 14.81a3.53 3.53 0 004.05.23 2.24 2.24 0 00.93-1.11h3a5.82 5.82 0 01-2.25 3.25 6.62 6.62 0 01-3.66 1 7.31 7.31 0 01-2.68-.47 5.54 5.54 0 01-2-1.36 6 6 0 01-1.28-2.1 7.65 7.65 0 01-.45-2.68 7.53 7.53 0 01.46-2.63A6.07 6.07 0 0174 5.39a6.55 6.55 0 012.62-.51 6.06 6.06 0 012.81.62 5.67 5.67 0 012 1.67 7 7 0 011.11 2.39 9 9 0 01.25 2.81h-9.1a3.46 3.46 0 00.8 2.44zm3.91-6.64a2.44 2.44 0 00-1.89-.68 2.93 2.93 0 00-1.37.28 2.6 2.6 0 00-.88.7 2.51 2.51 0 00-.47.88 3.41 3.41 0 00-.15.82h5.63a4 4 0 00-.87-2zM93.25 16.22a3.55 3.55 0 01-1.6 1.48 5.83 5.83 0 01-4.72-.1 5.09 5.09 0 01-1.77-1.48 7 7 0 01-1-2.16 9.33 9.33 0 01-.35-2.54 8.69 8.69 0 01.3-2.42 6.52 6.52 0 011-2.09 5.25 5.25 0 011.75-1.45 5.14 5.14 0 012.44-.55 4.88 4.88 0 012.13.48 3.63 3.63 0 011.6 1.4V.41h3.46v17.42H93.3v-1.61zM93.1 10a3.48 3.48 0 00-.5-1.27 2.87 2.87 0 00-.91-.89 2.65 2.65 0 00-1.41-.34 2.79 2.79 0 00-1.44.34 2.74 2.74 0 00-1 .9 4.35 4.35 0 00-.46 1.26 7.34 7.34 0 00-.15 1.5 6.12 6.12 0 00.17 1.5 3.88 3.88 0 00.54 1.3 2.94 2.94 0 001 .93 2.53 2.53 0 001.38.36 2.72 2.72 0 001.42-.35 2.59 2.59 0 00.92-.91A4.08 4.08 0 0093.1 13a7.44 7.44 0 00.15-1.51A7.34 7.34 0 0093.1 10zM8.71 151.76A2.65 2.65 0 006 149.61c-2.42 0-3.33 2.06-3.33 4.21s.91 4.11 3.33 4.11a2.76 2.76 0 002.78-2.75h2.62a5.18 5.18 0 01-5.4 5c-3.8 0-6-2.83-6-6.37s2.23-6.48 6-6.48a5 5 0 015.29 4.42zM17.06 150.78a4.68 4.68 0 010 9.36 4.68 4.68 0 010-9.36zm0 7.52c1.66 0 2.16-1.42 2.16-2.83s-.5-2.85-2.16-2.85-2.15 1.42-2.15 2.85.5 2.83 2.15 2.83zM23.17 151h2.31v1.65a3.14 3.14 0 012.84-1.88 1.89 1.89 0 01.53.08v2.27A4.67 4.67 0 0028 153c-1.79 0-2.41 1.29-2.41 2.85v4h-2.42zM29.84 151h2.32v1.13a3 3 0 012.64-1.37c2.79 0 4 2.25 4 4.77s-1.31 4.59-3.9 4.59a3.13 3.13 0 01-2.66-1.34V163h-2.4zm6.6 4.47c0-1.41-.57-2.87-2.13-2.87s-2.11 1.4-2.11 2.89.55 2.81 2.13 2.81 2.11-1.37 2.11-2.81zM44.23 150.78a4.68 4.68 0 010 9.36 4.68 4.68 0 010-9.36zm0 7.52c1.67 0 2.17-1.42 2.17-2.83s-.5-2.85-2.17-2.85-2.15 1.42-2.15 2.85.5 2.83 2.15 2.83zM50.34 151h2.32v1.65a3.13 3.13 0 012.83-1.88 2 2 0 01.54.08v2.27a4.67 4.67 0 00-.88-.09c-1.79 0-2.41 1.29-2.41 2.85v4h-2.4zM56.78 153.75c.14-2.28 2.18-3 4.18-3 1.77 0 3.9.39 3.9 2.52v4.63a4.41 4.41 0 00.31 2h-2.48a4 4 0 01-.17-.86 4 4 0 01-3 1.1c-1.68 0-3-.84-3-2.66 0-2 1.51-2.49 3-2.7s2.89-.17 2.89-1.17-.73-1.2-1.58-1.2-1.53.38-1.62 1.34zm5.64 1.8a4.78 4.78 0 01-2 .52c-.75.15-1.44.41-1.44 1.31s.7 1.13 1.49 1.13a1.81 1.81 0 002-2zM69.79 151h1.78v1.63h-1.78v4.4c0 .83.2 1 1 1a3.81 3.81 0 00.75-.07v1.91a9.09 9.09 0 01-1.42.09c-1.5 0-2.8-.35-2.8-2.12v-5.24h-1.45V151h1.48v-2.66h2.44zM75.85 149.65h-2.44v-2h2.44zM73.41 151h2.44v8.88h-2.44zM82.08 150.78a4.68 4.68 0 11-4.59 4.69 4.36 4.36 0 014.59-4.69zm0 7.52c1.67 0 2.16-1.42 2.16-2.83s-.49-2.85-2.16-2.85-2.15 1.42-2.15 2.85.5 2.83 2.15 2.83zM88.26 151h2.32v1.24a3.17 3.17 0 012.72-1.48c2.59 0 3.24 1.46 3.24 3.66v5.46h-2.39v-5c0-1.46-.43-2.19-1.56-2.19-1.32 0-1.89.74-1.89 2.55v4.65h-2.44z"/>
</svg>