<svg width="60" height="40" fill="none" xmlns="http://www.w3.org/2000/svg">
  <path d="M0 33h60v7H0v-7zM0 0h60v7H0V0z" fill="#2BB151"/>
  <path d="M0 7h60v2H0V7zm0 24h60v2H0v-2z" fill="#000"/>
  <path d="M0 9h60v22H0V9z" fill="#009"/>
  <path d="M29 9.5c-10 3-9.5 10.5-6.3 17.4l-3.8 3.6 6.9-2.5v-9.2c2.2-3.3 6.2-3.3 8.4 0V28l6.9 2.5-3.8-3.6C40.5 20 41 12.5 31 9.5l-1 4.3-1-4.3z" fill="#fff"/>
  <path d="M33.8 19.705l-2.334 1.797.886 2.898-2.35-1.78-2.347 1.776.881-2.897-2.336-1.8 2.895-.01.903-2.89.907 2.892 2.895.014z" fill="#fff"/>
</svg>
