<svg xmlns="http://www.w3.org/2000/svg" fill="none" viewBox="0 0 24 24">
  <defs/>
  <path class="fill-target" fill="#000" d="M12 4.5A7.506 7.506 0 004.5 12c0 4.064 3.246 7.378 7.283 7.494.07.007.144.006.217.006.073 0 .146.002.217-.006 4.037-.116 7.283-3.43 7.283-7.494 0-4.138-3.362-7.5-7.5-7.5zm-.366.783v2.693h-2.11a8.02 8.02 0 01.35-.858c.501-1.03 1.124-1.66 1.76-1.835zm.732 0c.636.176 1.259.806 1.76 1.835.128.261.243.553.35.858h-2.11V5.283zm-2.327.24c-.31.356-.585.787-.823 1.275a9.01 9.01 0 00-.469 1.178h-2.19a6.775 6.775 0 013.482-2.453zm3.922 0a6.775 6.775 0 013.481 2.453h-2.19a9.014 9.014 0 00-.468-1.178 5.795 5.795 0 00-.823-1.275zM6.089 8.707h2.453c-.22.891-.352 1.881-.378 2.927h-2.92a6.716 6.716 0 01.845-2.927zm3.213 0h2.332v2.927H8.902a12.87 12.87 0 01.4-2.927zm3.064 0h2.332c.23.873.373 1.868.4 2.927h-2.732V8.707zm3.093 0h2.452c.488.876.79 1.866.846 2.927h-2.921a13.659 13.659 0 00-.377-2.927zM5.243 12.366h2.921c.025 1.045.158 2.034.378 2.927H6.083a6.742 6.742 0 01-.84-2.927zm3.659 0h2.732v2.927H9.296c-.23-.874-.367-1.87-.394-2.927zm3.464 0h2.732a12.92 12.92 0 01-.394 2.927h-2.338v-2.927zm3.47 0h2.92a6.743 6.743 0 01-.84 2.927H15.46c.219-.893.352-1.882.377-2.927zm-9.284 3.658h2.19a8.9 8.9 0 00.474 1.184c.236.483.51.915.818 1.269a6.773 6.773 0 01-3.482-2.453zm2.967 0h2.115v2.693c-.636-.175-1.26-.8-1.76-1.83a7.876 7.876 0 01-.355-.863zm2.847 0h2.115c-.108.31-.226.599-.354.863-.502 1.03-1.125 1.655-1.761 1.83v-2.693zm2.892 0h2.19a6.773 6.773 0 01-3.482 2.453 5.82 5.82 0 00.818-1.27c.177-.363.338-.757.474-1.183z"/>
  <path class="fill-target" fill="#000" fill-rule="evenodd" d="M4.35 12c0-4.22 3.43-7.65 7.65-7.65 4.22 0 7.65 3.43 7.65 7.65 0 4.144-3.308 7.523-7.423 7.644a1.884 1.884 0 01-.194.006h-.063c-.06 0-.13 0-.197-.006-4.115-.121-7.423-3.5-7.423-7.644zM12 4.65A7.355 7.355 0 004.65 12c0 3.983 3.181 7.23 7.137 7.344h.01c.053.006.107.006.17.006H12.039c.06 0 .112 0 .162-.005l.012-.001c3.956-.114 7.137-3.361 7.137-7.344A7.355 7.355 0 0012 4.65zm-.216.436v3.04h-2.47l.07-.2c.107-.308.224-.605.355-.874.508-1.044 1.157-1.72 1.855-1.913l.19-.053zm.432 0l.19.053c.697.192 1.347.87 1.855 1.913.131.269.248.566.356.874l.07.2h-2.471v-3.04zm-.732.41c-.514.223-1.036.785-1.476 1.688a7.16 7.16 0 00-.27.642h1.746v-2.33zm1.032 0v2.33h1.746a7.14 7.14 0 00-.27-.642c-.44-.903-.962-1.465-1.476-1.689zm-2.021-.267l-.343.393c-.3.344-.568.763-.801 1.242a8.86 8.86 0 00-.46 1.158l-.034.104H6.26l.177-.24A6.925 6.925 0 019.996 5.38l.499-.15zm3.01 0l.5.15a6.925 6.925 0 013.558 2.507l.177.24h-2.597l-.033-.104a8.865 8.865 0 00-.46-1.158 5.645 5.645 0 00-.802-1.242l-.343-.393zm-6.64 2.597A6.63 6.63 0 019.608 5.83a6.523 6.523 0 00-.528.902 9.05 9.05 0 00-.442 1.094H6.864zM14.39 5.83c.193.273.369.576.528.902.164.337.313.705.442 1.094h1.775A6.63 6.63 0 0014.39 5.83zM6 8.557h2.732l-.046.186c-.217.88-.348 1.859-.373 2.895l-.003.146H5.085l.008-.158a6.866 6.866 0 01.865-2.992l.043-.077zm.177.3a6.563 6.563 0 00-.775 2.627H8.02c.031-.93.146-1.816.333-2.627H6.178zm3.008-.3h2.598v3.227H8.748l.004-.154a13.02 13.02 0 01.405-2.961l.03-.112zm.232.3c-.2.791-.327 1.682-.362 2.627h2.428V8.857H9.418zm2.798-.3h2.598l.03.112c.233.885.377 1.892.404 2.961l.004.154h-3.036V8.557zm.3.3v2.627h2.428a12.731 12.731 0 00-.362-2.627h-2.066zm2.75-.3H18l.043.077c.5.895.807 1.908.865 2.992l.008.158h-3.226l-.003-.146a13.498 13.498 0 00-.373-2.895l-.046-.186zm.382.3c.187.811.302 1.697.334 2.627h2.615a6.564 6.564 0 00-.775-2.627h-2.174zM5.085 12.216h3.226l.003.146c.025 1.036.156 2.014.373 2.895l.046.186H5.995l-.043-.077a6.891 6.891 0 01-.859-2.992l-.008-.158zm.318.3c.073.945.343 1.835.77 2.627h2.179a13.883 13.883 0 01-.334-2.627H5.403zm3.345-.3h3.036v3.227H9.18l-.029-.112a13.074 13.074 0 01-.4-2.961l-.003-.154zm.308.3c.035.945.158 1.835.356 2.627h2.072v-2.627H9.056zm3.16-.3h3.036l-.004.154a13.074 13.074 0 01-.399 2.96l-.03.113h-2.603v-3.227zm.3.3v2.627h2.072a12.78 12.78 0 00.356-2.627h-2.428zm3.173-.3h3.226l-.008.158a6.892 6.892 0 01-.86 2.992l-.042.077h-2.738l.046-.186c.216-.881.348-1.86.373-2.895l.003-.146zm.293.3c-.032.93-.148 1.815-.334 2.627h2.18a6.589 6.589 0 00.769-2.627H15.98zm-9.727 3.358H8.85l.033.104c.135.42.293.807.467 1.164.231.474.499.895.796 1.236l.342.393-.499-.15a6.923 6.923 0 01-3.558-2.508l-.177-.239zm.603.3a6.623 6.623 0 002.747 1.996 6.568 6.568 0 01-.524-.897 9.038 9.038 0 01-.448-1.099H6.858zm2.45-.3h2.476v3.04l-.19-.053c-.697-.19-1.347-.864-1.855-1.908a8.017 8.017 0 01-.362-.88l-.069-.199zm.425.3c.085.23.177.446.275.648.44.902.962 1.46 1.476 1.683v-2.33H9.733zm2.483-.3h2.476l-.07.2c-.108.314-.229.608-.36.88-.51 1.043-1.159 1.716-1.857 1.907l-.19.052v-3.039zm.3.3v2.331c.514-.223 1.036-.78 1.476-1.683.098-.202.19-.418.275-.648h-1.751zm2.633-.3h2.596l-.177.24a6.923 6.923 0 01-3.558 2.506l-.498.151.341-.393a5.67 5.67 0 00.796-1.236c.174-.357.332-.744.467-1.163l.033-.105zm.218.3c-.131.394-.283.76-.448 1.1a6.569 6.569 0 01-.524.896 6.623 6.623 0 002.747-1.996h-1.775z" clip-rule="evenodd"/>
</svg>