<!-- Our site logo -->
<svg aria-hidden="true" focusable="false" width="48" height="48" fill="none" xmlns="http://www.w3.org/2000/svg" viewBox="0 0 24 24">
  <path fill-rule="evenodd" clip-rule="evenodd" d="M6.607 4.5l5.276-1.836h.234L17.393 4.5l.172.128L20.32 8.46l-.288.208.352-.052.497 3.394v.103l-.497 3.394-.063.156-2.756 3.835-.289-.208.117.336-5.276 1.836h-.234l-5.276-1.836-.172-.128-2.756-3.835-.063-.156-.497-3.394v-.103l.497-3.394.063-.156 2.756-3.83.172-.129zm10.446 14.49l2.01-2.797h-2.94l-.086.495-.075.164-2.888 3.523 3.98-1.385zm2.522-3.508l.118-.164.425-2.902h-3.33l-.54 3.066h3.327zm.543-3.777l-.425-2.901-.754-1.047-2.844.069.693 3.88h3.33zm-4.742-3.862l.69 3.862h-3.71V7.917l3.02-.074zm-3.731.09v3.772h-3.71l.66-3.697 3.05-.074zm0 4.483H7.934l.539 3.066h3.172v-3.066zM7.87 8.026l-.657 3.68H3.882l.425-2.902.507-.704 3.056-.074zm-.658 4.39h-3.33l.425 2.902.118.164h3.326l-.54-3.066zm8.855 0h-3.712v3.066h3.172l.54-3.066zm-3.712-5.21l2.537-.062-2.537-3.139v3.2zm-.71-3.2v3.217l-2.652.064 2.652-3.282zm0 12.187H8.598l.05.28 2.997 3.658v-3.938zm.71 3.938l2.998-3.657.05-.281h-3.048v3.938zm-4.479-3.938h-2.94l2.01 2.797 3.98 1.385-2.887-3.523-.076-.164-.087-.495zm7.912-9.07l2.649-.065-1.384-1.923-3.994-1.39 2.729 3.377zM8.06 7.31l2.88-3.565-3.994 1.39-1.613 2.241 2.727-.066z" fill="#000000"/>
</svg>

